<svg version="1.1" id="Layer_1" xmlns="http://www.w3.org/2000/svg" xmlns:xlink="http://www.w3.org/1999/xlink" x="0px" y="0px"
	 width="873px" height="333px" viewBox="0 0 873 333" enable-background="new 0 0 873 333" xml:space="preserve">
<g>
	<g>
		<path fill="#C1484B" d="M226.56,243.367c-2.117-9.53-4.128-16.551-6.037-21.063c-0.878-0.14-1.675-0.185-2.384-0.135
			c-2.542,0.185-4.564,1.556-6.065,4.114c-1.001,1.708-2.029,4.466-3.083,8.271c-1.054,3.805-2.083,6.562-3.082,8.267
			c-0.095,0.109-0.607-0.235-1.533-1.04l-3.393-9.876c-1.353-3.887-2.921-6.864-4.704-8.934c-0.571-0.829-1.619-1.189-3.144-1.079
			c-2.184,0.156-3.322,1.031-3.412,2.621c-0.347,10.809-0.575,18.31-0.681,22.506c-0.035,0.923-0.417,3.097-1.14,6.521
			c-0.611,2.854-0.869,4.967-0.77,6.34c0.139,1.933,0.836,3.466,2.093,4.601c0.712,0.665,1.805,0.942,3.278,0.839
			c1.22-0.089,2.344-0.45,3.372-1.089c1.026-0.635,1.479-1.815,1.354-3.546c-0.04-0.557-0.137-1.367-0.29-2.432
			c-0.155-1.062-0.249-1.872-0.29-2.432c-0.04-0.557,0.028-1.394,0.203-2.503c0.177-1.113,0.244-1.947,0.203-2.507
			c-0.018-0.255-0.074-0.658-0.165-1.217c-0.091-0.552-0.145-0.959-0.165-1.214c-0.062-0.864,0.109-1.309,0.517-1.339
			c1.881-0.135,3.332,2.646,4.354,8.347c0.052,0.713,0.406,1.378,1.064,1.991c0.656,0.619,1.375,1,2.152,1.148
			c0.523,0.167,1.063,0.232,1.623,0.19c2.033-0.145,3.531-1.353,4.491-3.617c0.072-0.261,0.042-0.693-0.093-1.298
			c-0.073-0.298-0.117-0.552-0.13-0.754c-0.015-0.206-0.002-0.384,0.038-0.542c0.656-1.528,1.483-4.246,2.479-8.147
			c0.875-3.437,1.785-6.054,2.729-7.857c1.665,3.252,3.197,8.57,4.596,15.95c1.4,7.386,3.115,12.767,5.147,16.144
			c0.435,0.38,1.682,0.289,3.736-0.268c2.253-0.621,3.325-1.721,3.21-3.295c-0.014-0.203-0.056-0.429-0.125-0.682
			C230.661,259.891,228.674,252.895,226.56,243.367z M289.095,239.822c-0.238-3.306-1.475-6.284-3.713-8.938
			c-2.964-3.517-6.444-6.412-10.443-8.68c-2.719-1.543-5.883-2.187-9.495-1.926c-0.361-0.023-0.746-0.023-1.151,0.007
			c-1.366,0.099-2.373,0.509-3.027,1.221c-0.133-0.099-0.336-0.208-0.624-0.328c-0.526-0.217-0.801-0.501-0.826-0.858
			c-2.197,0.67-3.735,1.265-4.613,1.79c-1.468,0.873-2.06,1.884-1.771,3.038c0.113,1.577,0.444,3.954,0.997,7.133
			c0.55,3.178,0.882,5.556,0.997,7.132c0.15,2.085,0.083,4.007-0.198,5.763c-0.162,2.72-0.77,5.268-1.824,7.642
			c-1.359,3.114-3.158,4.748-5.393,4.907c-0.966,0.074-1.979-0.16-3.039-0.701c-4.875-2.458-7.582-7.423-8.12-14.893
			c-0.328-4.575,0.258-8.959,1.758-13.155c0.08-0.313,0.112-0.596,0.094-0.85c-0.07-0.965-0.567-1.849-1.495-2.653
			c-0.787-0.298-1.588-0.421-2.401-0.359c-1.119,0.079-2.146,0.51-3.086,1.291c-0.94,0.784-1.55,1.722-1.829,2.815
			c-1.095,4.675-1.482,9.221-1.165,13.64c0.584,8.129,3.501,14.606,8.752,19.437c2.022,1.847,4.405,2.67,7.148,2.473
			c2.743-0.198,5.525-1.29,8.343-3.28c2.572-1.869,4.607-4.084,6.107-6.644c3.413-5.812,4.825-12.807,4.236-20.987
			c-0.147-2.027-0.434-4.312-0.858-6.84c0.115,0.214,0.185,0.414,0.198,0.6c2.186,12.062,3.378,20.899,3.579,26.506
			c0.032,0.457-0.307,0.994-1.021,1.608c-0.998,0.89-1.476,1.615-1.434,2.175c0.058,0.813,0.466,1.574,1.221,2.287
			c1.383,1.437,3.347,2.061,5.893,1.879c4.837-0.35,9.167-2.934,12.99-7.761C287.703,249.483,289.442,244.654,289.095,239.822z
			 M279.958,250.44c-1.546,2.822-3.521,4.319-5.926,4.491c-0.308,0.021-0.616,0.032-0.924,0.028
			c-0.31-0.004-0.941-4.137-1.896-12.404c-0.794-7.154-1.277-11.927-1.448-14.314c2.724,0.109,5.285,1.178,7.687,3.202
			c2.126,1.793,3.8,4.051,5.021,6.772c0.369,0.846,0.584,1.7,0.646,2.562C283.287,243.117,282.233,246.339,279.958,250.44z
			 M310.542,229.074c-2.965-3.519-6.445-6.412-10.444-8.681c-2.72-1.543-5.885-2.185-9.497-1.925
			c-0.359-0.023-0.745-0.021-1.149,0.006c-2.239,0.163-3.523,1.149-3.853,2.961l0.115,1.605c0.329,0.333,0.752,0.775,1.273,1.324
			c0.521,0.551,0.795,1.03,0.825,1.438c2.186,12.062,3.378,20.897,3.578,26.507c0.033,0.46-0.308,0.993-1.02,1.606
			c-0.997,0.893-1.475,1.616-1.434,2.176c0.058,0.815,0.465,1.578,1.221,2.288c1.382,1.438,3.346,2.062,5.894,1.878
			c4.835-0.349,9.167-2.935,12.989-7.759c3.825-4.825,5.562-9.656,5.214-14.488C314.016,234.705,312.778,231.728,310.542,229.074z
			 M305.116,248.629c-1.546,2.824-3.52,4.319-5.925,4.495c-0.309,0.02-0.616,0.029-0.924,0.027
			c-0.309-0.003-0.941-4.141-1.895-12.407c-0.793-7.151-1.278-11.924-1.45-14.313c2.723,0.111,5.287,1.18,7.687,3.202
			c2.126,1.793,3.799,4.048,5.021,6.772c0.369,0.845,0.584,1.699,0.647,2.562C308.445,241.309,307.391,244.529,305.116,248.629z
			 M328.839,239.023c-0.056-0.759,0.022-1.456,0.232-2.086c3.758-10.952,6.159-18.078,7.199-21.373
			c0.083-0.263,0.114-0.545,0.093-0.85c-0.104-1.423-1.146-2.064-3.127-1.924c-3,0.217-5.146,3.417-6.437,9.595
			c-1.028,4.884-1.912,7.89-2.647,9.015c-1.214-1.239-2.633-4.28-4.259-9.122c-1.505-4.592-3.043-7.495-4.609-8.714
			c-0.378-0.277-0.925-0.393-1.634-0.342c-1.017,0.072-1.938,0.42-2.762,1.044c-1.02,0.735-1.418,1.583-1.196,2.538
			c0.622,2.971,2.49,7.282,5.604,12.934c3.116,5.654,4.95,9.864,5.507,12.634c0.401,2.016,0.069,5.209-0.997,9.577
			c-1.26,5.201-1.943,8.495-2.047,9.883c-0.122,1.847,0.047,3.113,0.504,3.796c0.573,0.88,1.573,1.267,2.996,1.165
			c1.78-0.128,2.78-0.788,3-1.98c1.017-5.746,1.853-11.176,2.506-16.283c0.21-0.63,0.735-1.152,1.573-1.57
			c1.187-0.546,1.876-0.903,2.069-1.07c0.343-0.893,0.493-1.671,0.445-2.332c-0.026-0.354-0.148-0.628-0.366-0.815
			C329.486,241.637,328.938,240.4,328.839,239.023z M405.212,242.349c-0.074-1.017,0.06-2.023,0.397-3.017
			c0.188-0.219,0.269-0.531,0.24-0.938c-0.032-0.404-0.146-0.754-0.346-1.048c-0.2-0.292-0.67-0.617-1.41-0.973
			c-0.742-0.354-1.124-0.684-1.145-0.988c-2.591-8.298-4.047-12.918-4.37-13.865c-1.578-4.894-3.426-9.258-5.542-13.092
			c-0.297-0.591-0.929-0.852-1.895-0.783c-1.575,0.113-2.638,0.624-3.185,1.531c-0.953,1.655-1.637,3.877-2.05,6.663
			c-0.571,4.129-0.957,6.584-1.157,7.363c-1.51,5.984-2.758,12.413-3.747,19.279c-0.065,0.516-0.532,2.544-1.401,6.079
			c-0.003,0.015-0.005,0.026-0.008,0.042c-1.321-4.142-2.703-9.457-4.144-15.949c-2.116-9.529-4.129-16.552-6.036-21.062
			c-0.879-0.141-1.676-0.189-2.387-0.14c-2.542,0.187-4.562,1.558-6.063,4.118c-1.001,1.705-2.03,4.464-3.082,8.27
			c-1.056,3.804-2.083,6.56-3.084,8.269c-0.096,0.108-0.606-0.237-1.531-1.041l-3.393-9.873c-1.354-3.89-2.922-6.868-4.705-8.939
			c-0.571-0.825-1.618-1.187-3.144-1.077c-2.185,0.157-3.323,1.031-3.413,2.62c-0.346,10.809-0.574,18.311-0.68,22.508
			c-0.036,0.92-0.415,3.095-1.14,6.519c-0.613,2.854-0.869,4.968-0.771,6.339c0.14,1.935,0.837,3.469,2.094,4.604
			c0.711,0.666,1.804,0.943,3.278,0.839c1.22-0.089,2.344-0.45,3.371-1.088c1.027-0.635,1.479-1.816,1.354-3.544
			c-0.039-0.56-0.137-1.371-0.289-2.435c-0.153-1.06-0.249-1.87-0.289-2.43s0.027-1.393,0.203-2.505
			c0.175-1.111,0.242-1.945,0.202-2.508c-0.018-0.253-0.074-0.657-0.165-1.214c-0.092-0.555-0.146-0.959-0.164-1.216
			c-0.062-0.863,0.11-1.311,0.516-1.337c1.882-0.136,3.333,2.646,4.357,8.347c0.05,0.712,0.404,1.373,1.062,1.992
			c0.656,0.616,1.374,0.999,2.15,1.147c0.523,0.165,1.065,0.23,1.623,0.187c2.033-0.144,3.53-1.35,4.492-3.617
			c0.071-0.26,0.042-0.689-0.094-1.295c-0.072-0.3-0.116-0.551-0.13-0.758c-0.016-0.202-0.004-0.382,0.036-0.54
			c0.657-1.525,1.482-4.242,2.479-8.146c0.878-3.437,1.787-6.055,2.73-7.86c1.664,3.252,3.194,8.569,4.596,15.953
			c1.4,7.386,3.114,12.767,5.147,16.144c0.435,0.376,1.68,0.287,3.734-0.269c0.609-0.169,1.125-0.374,1.562-0.612
			c0.797,0.271,1.507,0.393,2.117,0.348c1.729-0.124,2.856-1.837,3.385-5.143c0.645-3.822,1.328-6.066,2.045-6.729
			c1.582-1.441,3.567-2.246,5.958-2.418c1.521-0.111,2.842,0.104,3.952,0.633c1.377,0.667,2.364,2.33,2.965,4.993
			c0.523,2.312,0.964,3.836,1.323,4.576c0.839,1.723,2.023,2.53,3.547,2.422c2.033-0.145,3.099-0.94,3.201-2.378
			c0.108-1.336-0.357-3.168-1.393-5.493C405.883,245.29,405.292,243.465,405.212,242.349z M395.418,237.222
			c-0.504,0.802-1.572,1.26-3.197,1.378c-1.424,0.102-2.637-0.065-3.638-0.506c-0.477-0.219-0.736-0.633-0.78-1.245
			c-0.04-0.558,0.187-1.646,0.685-3.265c0.46-1.413,0.848-3.289,1.165-5.636c0.319-2.347,0.868-4.084,1.657-5.213
			c1.588,2.897,2.562,4.691,2.916,5.382c1.024,2.173,1.597,4.07,1.715,5.694C396.055,235.438,395.882,236.574,395.418,237.222z
			 M434.107,206.233c-0.054-0.047-0.226-0.289-0.514-0.725c-0.286-0.438-0.507-0.65-0.658-0.642
			c-1.779,0.127-3.508,0.255-5.184,0.374l-6.478,0.466c-6.1,0.44-11.873,2.259-17.312,5.463c-1.371,0.815-2.004,1.958-1.898,3.434
			c0.059,0.815,0.389,1.494,0.988,2.038c0.603,0.545,1.31,0.789,2.122,0.729c0.712-0.052,1.717-0.455,3.018-1.211
			c1.297-0.76,2.199-1.209,2.699-1.348c1.787-0.741,2.728-1.116,2.831-1.121c0.559-0.04,0.861,0.243,0.904,0.854
			c0.272,3.758,0.284,9.442,0.038,17.047c-0.247,7.604-0.232,13.289,0.038,17.048c0.062,0.867,0.216,2.183,0.458,3.954
			c0.093,0.605,0.374,1.133,0.84,1.587c0.466,0.452,0.98,0.656,1.539,0.616c0.86-0.062,1.912-0.57,3.143-1.524
			c1.234-0.954,1.819-1.861,1.758-2.726c-0.768-16.347-0.554-28.997,0.639-37.95c5.098-0.773,7.799-1.195,8.102-1.268
			c2.278-0.978,3.353-2.354,3.226-4.124C434.385,206.899,434.285,206.577,434.107,206.233z M464.78,241.588
			c-0.326-0.229-0.744-0.328-1.25-0.294c-0.709,0.051-1.723,0.56-3.032,1.525c-1.551,1.135-2.548,1.797-2.996,1.98
			c-1.189,0.497-2.418,0.79-3.689,0.882c-2.541,0.182-4.905-0.388-7.095-1.715c-3.471-2.101-5.37-5.463-5.704-10.09
			c-0.384-5.342,1.575-8.955,5.883-10.85c0.443-0.183,0.849-0.291,1.201-0.316c0.608-0.045,1.533,0.03,2.773,0.224
			c1.237,0.189,2.163,0.266,2.771,0.22c0.609-0.043,2.037-0.454,4.278-1.229c1.544-0.57,2.263-1.547,2.166-2.924
			c-0.117-1.58-1.158-2.578-3.13-3.002c-2.903-0.613-5.297-0.85-7.18-0.713c-1.372,0.099-2.682,0.346-3.931,0.743
			c-4.297,1.382-7.57,4.147-9.825,8.294c-2.08,3.776-2.946,8.028-2.608,12.755c0.338,4.678,2.149,8.201,5.438,10.571
			c1.936,1.391,4.855,2.537,8.75,3.432c3.065,0.699,5.971,0.949,8.715,0.754c4.014-0.291,7.421-1.607,10.216-3.949
			c0.867-0.725,1.269-1.519,1.207-2.383C467.644,244.137,466.652,242.83,464.78,241.588z M540.187,224.042
			c-1.034-0.846-4.034-2.825-9.011-5.941c-3.955-2.422-6.752-4.725-8.391-6.904c-0.062-0.148-0.098-0.3-0.108-0.453
			c-0.041-0.558,0.379-1.122,1.259-1.696c1.853-1.205,4.645-2.198,8.368-2.977c4.227-0.917,7.157-1.741,8.788-2.474
			c2.297-0.727,3.389-1.902,3.271-3.529c-0.064-0.916-0.593-1.682-1.581-2.3c-0.991-0.616-1.969-0.893-2.937-0.823
			c-1.778,0.128-6.959,1.601-15.544,4.415c-5.294,1.707-9.303,4.55-12.031,8.525c-0.37,0.54-0.541,1.012-0.513,1.418
			c0.04,0.56,0.503,1.291,1.384,2.198c0.662,0.667,1.324,1.335,1.984,2c2.047,2.207,5.665,4.919,10.854,8.146
			c5.186,3.229,8.809,5.992,10.868,8.301c0.407,0.734,0.638,1.458,0.692,2.169c0.082,1.17-0.307,2.142-1.17,2.918
			c-3.449,1.784-5.582,2.701-6.393,2.758c-0.916,0.069-1.794-0.071-2.635-0.419c-2.279-0.398-3.977-0.554-5.092-0.473
			c-0.364-0.077-0.968-0.647-1.812-1.709c-0.725-0.862-1.438-1.192-2.14-0.989c-0.447,0.265-0.863,0.586-1.262,0.946
			c-0.052-0.23-0.119-0.46-0.207-0.688c-0.543-0.471-0.941-0.697-1.199-0.678c-0.103,0.006-0.172,0.038-0.222,0.09
			c-0.851,0.266-3.099,1.321-6.747,3.17c-2.713,1.37-5.011,2.122-6.89,2.257c-0.662,0.049-1.301,0.019-1.923-0.094
			c-0.803-5.129-1.205-7.566-1.215-7.31c-0.167-2.552,0.37-4.282,1.62-5.182c0.919-0.684,2.827-1.152,5.719-1.413
			c3.148-0.277,5.166-1.361,6.051-3.258c-1.021-2.113-2.905-3.072-5.648-2.876c-0.506,0.039-1.242,0.12-2.203,0.247
			c-0.962,0.128-1.696,0.209-2.205,0.246c-1.575,0.111-2.892-0.072-3.948-0.553c0.207-0.621,0.275-1.441,0.202-2.448
			c-0.035-0.504-0.141-1.257-0.312-2.256c-0.172-1.003-0.278-1.755-0.313-2.258c-0.204-2.826,1.093-4.338,3.89-4.539
			c0.711-0.051,1.971,0.086,3.781,0.41c1.608,0.342,2.841,0.405,3.693,0.191c0.652-0.149,1.291-0.515,1.913-1.098
			c0.622-0.578,0.912-1.2,0.861-1.86c-0.034-0.51-0.239-0.878-0.614-1.106c-2.949-1.933-6.254-2.767-9.912-2.507
			c-4.932,0.355-8.492,2.376-10.675,6.061c-0.551,0.908-0.777,2.021-0.681,3.346c0.058,0.812,0.319,2.022,0.788,3.622
			c0.469,1.603,0.73,2.811,0.788,3.624c0.188,2.596,0.159,4.126-0.08,4.605l-0.656,0.705c-0.604-0.612-0.932-1.053-0.95-1.307
			c-0.28-1.77-0.354-4.216-0.216-7.346c0.137-3.789,0.165-6.245,0.084-7.362c-0.185-2.542-0.696-4.701-1.541-6.479
			c-0.427-0.942-1.503-1.35-3.234-1.225c-2.495,0.177-3.823,1.298-3.981,3.354c-0.105,1.39-0.088,3.048,0.052,4.986
			c0.137,1.885,0.206,2.827,0.201,2.827c0.031,0.407,0.069,0.939,0.116,1.601c0.044,0.562,0.069,0.945,0.084,1.148
			c0.234,3.258,0.066,5.855-0.498,7.79c-0.209,0.628-0.889,0.983-2.042,1.067c-3.814,0.273-5.853-1.469-6.124-5.232
			c-0.095-1.323,0.071-3.203,0.499-5.634c0.537-3.006,0.834-4.868,0.884-5.586c0.078-1.029-0.614-2.129-2.078-3.304
			c-1.054-0.435-2.14-0.611-3.257-0.534c-1.781,0.132-2.937,0.75-3.469,1.86c-0.929,2.009-1.279,4.59-1.051,7.739
			c0.061,0.864,0.262,2.51,0.606,4.938c0.285,2.072,0.448,3.695,0.481,4.868c-0.225,1.857-0.455,3.254-0.692,4.189
			c-0.026,0.361,0.089,0.887,0.347,1.583c0.339,1.05,0.507,1.601,0.511,1.649l1.015,7.593c0.445,3.339,1.206,5.787,2.287,7.344
			c1.476,2.091,3.755,2.975,6.842,2.649c0.328-1.094,0.447-2.299,0.352-3.619c-0.081-1.115-0.396-2.761-0.95-4.939
			c-0.555-2.179-0.872-3.821-0.952-4.938c-0.111-1.571,0.149-2.917,0.782-4.036c0.305-0.733,1.37-1.166,3.193-1.299
			c2.131-0.151,3.502,0.437,4.107,1.769c0.671,1.531,1.407,4.307,2.207,8.325c0.723,3.67,1.553,6.36,2.492,8.078
			c1.35,2.448,3.243,3.587,5.676,3.412c0.61-0.044,1.265-0.169,1.965-0.37c-0.102-1.41-0.438-3.333-1.011-5.769
			c0.131,0.437,0.274,0.853,0.438,1.245c0.198,0.598,0.886,0.955,2.071,1.075c0.207,0.037,1.078,0.05,2.611,0.043
			c2.557-0.031,5.317-0.715,8.289-2.055c3.342-1.553,5.876-2.733,7.629-3.551c0.001,0.1-0.013,0.198-0.007,0.297
			c0.107,1.469,0.92,2.481,2.439,3.035c3.36,1.237,6.973,1.718,10.835,1.438c4.118-0.295,7.643-1.339,10.581-3.134
			c3.476-2.091,5.566-4.972,6.272-8.651c0.225-1.14,0.306-2.167,0.241-3.081C544.617,229.162,543.07,226.491,540.187,224.042z
			 M492.771,242.775c-0.976-3.711-1.529-6.508-1.666-8.389c-0.096-1.319-0.083-2.573,0.034-3.758c0.031-0.079,0.191-0.3,0.479-0.662
			c0.431,1.326,0.715,2.879,0.845,4.659c0.049,0.715,0.09,1.81,0.119,3.288c0.032,1.48,0.071,2.577,0.122,3.287
			c0.07,0.985,0.197,1.896,0.366,2.744C492.976,243.566,492.878,243.178,492.771,242.775z M547.977,237.781
			c-1.1,0.081-1.921,0.473-2.458,1.179c-0.538,0.706-0.7,1.605-0.49,2.696c0.198,0.93,0.581,1.73,1.151,2.405
			c0.676,0.766,1.451,1.117,2.326,1.053c0.55-0.041,1.076-0.225,1.575-0.555c0.933-0.618,1.341-1.771,1.219-3.452
			C551.129,238.743,550.024,237.636,547.977,237.781z M570.798,237.505c-0.207-0.147-0.475-0.21-0.797-0.188
			c-0.451,0.034-1.102,0.359-1.937,0.979c-0.992,0.728-1.634,1.152-1.916,1.269c-0.76,0.318-1.545,0.508-2.357,0.563
			c-1.625,0.117-3.136-0.249-4.534-1.095c-2.217-1.339-3.434-3.491-3.647-6.445c-0.244-3.41,1.01-5.722,3.763-6.933
			c0.286-0.116,0.544-0.185,0.77-0.201c0.39-0.029,0.982,0.021,1.772,0.144c0.793,0.123,1.385,0.168,1.772,0.14
			c0.39-0.026,1.305-0.29,2.735-0.782c0.984-0.364,1.447-0.981,1.384-1.858c-0.073-1.002-0.739-1.64-1.994-1.906
			c-1.855-0.388-3.383-0.539-4.586-0.453c-0.876,0.065-1.712,0.222-2.508,0.477c-2.745,0.884-4.835,2.648-6.274,5.297
			c-1.326,2.41-1.881,5.125-1.665,8.144c0.216,2.985,1.373,5.233,3.471,6.747c1.238,0.89,3.101,1.619,5.588,2.19
			c1.957,0.448,3.813,0.607,5.566,0.482c2.562-0.186,4.737-1.025,6.519-2.531c0.553-0.462,0.811-0.971,0.771-1.523
			C572.629,239.14,571.998,238.304,570.798,237.505z M588.658,222.706c-1.847-2.053-3.885-3.001-6.125-2.84
			c-2.599,0.188-4.933,1.596-7.01,4.225c-2.077,2.63-3.023,5.243-2.837,7.84c0.212,2.985,1.738,5.359,4.571,7.112
			c1.4,0.88,2.944,1.258,4.631,1.136c1.852-0.134,3.577-0.826,5.186-2.085c3.026-2.342,4.401-5.457,4.121-9.354
			C591.029,226.434,590.185,224.424,588.658,222.706z M583.194,235.962c-0.406,0.227-0.821,0.354-1.243,0.384
			c-1.749,0.127-3.034-1.22-3.855-4.031c-0.219-0.798,0.029-2.097,0.747-3.896c0.715-1.797,1.457-2.806,2.225-3.023
			c0.287-0.086,0.59-0.143,0.916-0.164c2.237-0.161,3.586,0.493,4.05,1.961c0.21,0.637,0.343,1.361,0.402,2.172
			C586.658,232.45,585.576,234.646,583.194,235.962z M595.827,234.34c-1.104,0.078-1.924,0.472-2.459,1.18
			c-0.537,0.704-0.7,1.601-0.491,2.694c0.195,0.93,0.581,1.729,1.149,2.405c0.676,0.763,1.451,1.112,2.326,1.053
			c0.552-0.041,1.079-0.226,1.574-0.553c0.936-0.619,1.342-1.771,1.223-3.455C598.979,235.3,597.869,234.192,595.827,234.34z
			 M619.664,211.985c-0.007-0.099-0.178-0.217-0.516-0.355c-0.339-0.138-0.513-0.321-0.527-0.547
			c-1.409,0.424-2.392,0.806-2.954,1.139c-0.938,0.559-1.316,1.205-1.135,1.941c0.073,1.006,0.286,2.522,0.641,4.551
			c0.356,2.028,0.571,3.543,0.642,4.551c0.096,1.328,0.053,2.556-0.126,3.677c-0.104,1.734-0.491,3.361-1.166,4.876
			c-0.865,1.985-2.013,3.031-3.439,3.133c-0.616,0.044-1.262-0.104-1.937-0.45c-3.112-1.568-4.84-4.738-5.184-9.509
			c-0.212-2.921,0.157-5.72,1.104-8.398c0.052-0.198,0.071-0.379,0.061-0.544c-0.046-0.615-0.361-1.179-0.952-1.691
			c-0.503-0.191-1.017-0.267-1.534-0.229c-0.714,0.05-1.371,0.324-1.975,0.825c-0.598,0.5-0.985,1.1-1.165,1.796
			c-0.699,2.987-0.946,5.894-0.744,8.718c0.376,5.193,2.239,9.335,5.594,12.422c1.291,1.181,2.815,1.707,4.565,1.581
			c1.752-0.126,3.53-0.823,5.33-2.096c1.644-1.193,2.943-2.61,3.905-4.245c2.178-3.711,3.081-8.177,2.706-13.404
			C620.703,217.585,620.307,215.003,619.664,211.985z M638.358,233.377c-0.498-1.495-1.583-2.982-3.256-4.46
			c-1.982-1.684-3.477-2.945-4.48-3.787c-0.112-0.188-0.677-0.871-1.696-2.044c-0.831-0.95-1.256-1.604-1.283-1.961
			c-0.01-0.129,0.017-0.244,0.077-0.348c0.545-0.561,2.062-1.681,4.56-3.359c1.962-1.314,3.284-2.647,3.973-3.999
			c0.057-0.104,0.08-0.218,0.07-0.35c-0.035-0.519-0.386-0.957-1.047-1.317c-0.664-0.357-1.254-0.521-1.775-0.481
			c-0.681,0.05-1.552,0.649-2.611,1.801c-1.425,1.539-2.216,2.361-2.371,2.472c-0.697,0.736-1.258,1.116-1.682,1.146
			c-0.551,0.042-0.88-0.67-0.986-2.129c-0.024-0.359-0.04-0.904-0.047-1.639c-0.003-0.732-0.016-1.28-0.043-1.637
			c-0.137-1.915-0.968-2.785-2.485-2.611c-0.615,0.077-1.248,0.359-1.896,0.846c-0.651,0.488-0.954,1.022-0.914,1.606
			c0.491,6.818,1.21,12.507,2.158,17.072c1.246,5.978,1.946,10.054,2.102,12.229c0.041,0.552,0.333,0.984,0.881,1.304
			c0.543,0.323,1.107,0.463,1.689,0.419c0.943-0.069,1.607-0.573,1.998-1.513c0.431-0.783,0.422-1.825-0.031-3.132
			c-1.234-3.562-1.926-6.384-2.077-8.46c-0.032-0.487-0.017-0.929,0.054-1.325l3.301,3.724c1.562,1.782,2.771,2.967,3.632,3.556
			c0.481,0.326,0.996,0.469,1.546,0.426c0.553-0.04,1.14-0.242,1.767-0.614C638.233,234.366,638.526,233.888,638.358,233.377z"/>
	</g>
</g>
<path fill="#C1484B" d="M558.184,182.463c-4.349,1.223-7.008,9.358-3.633,12.414c3.265,2.959,16.616,6.906,18.53,4.521
	c1.939-2.418,4.621-12.983,2.91-15.776C574.234,180.754,562.519,181.248,558.184,182.463z"/>
<path fill="#C1484B" d="M605.327,176.819c1.891-3.063,0.427-9.013-1.917-10.698c-2.384-1.715-41.723-3.994-45.385-2.237
	c-3.649,1.752-3.659,11.457,1.03,12.832c4.583,1.348,18.158,3.836,20.272,3.239C581.441,179.36,603.47,179.829,605.327,176.819z"/>
<path fill="#C1484B" d="M610.508,176.429c3.277,1.918,11.909,2.746,15.576,0.935c3.683-1.821,4.58-8.802,2.236-10.809
	c-2.397-2.052-18.69-4.548-20.084-3.115C606.854,164.866,607.147,174.466,610.508,176.429z"/>
<path fill="#C1484B" d="M597.243,148.518c-11.886-3.467-32.531-0.229-35.888,1.227c-3.355,1.451-6.282,7.685-1.727,10.16
	c4.426,2.408,37.753,1.472,43.164,3.482C608.049,165.341,608.519,151.806,597.243,148.518z"/>
<path fill="#C1484B" d="M558.496,144.478c4.706,3.211,27.38-2.086,41.691,0.411c13.587,2.369,7.087-3.664,5.629-7.973
	c-1.508-4.451-14.285-7.619-20.63-12.526c-6.646-5.143,2.591-3.254-4.042-9.057c-6.982-6.109-17.933-5.596-22.774-2.956
	C553.552,115,553.63,141.157,558.496,144.478z"/>
<path fill="#C1484B" d="M634.195,182.768c0,0-2.334-2.729-5.586-2.911c-3.286-0.184-45.921,1.316-47.597,3.31
	c-1.66,1.971-3.317,2.914,0.396,5.716c3.59,2.716,19.401-5.467,27.852-4.739c8.199,0.708,21.233,4.735,24.821,4.268
	C637.639,187.947,634.195,182.768,634.195,182.768z"/>
<path fill="#C1484B" d="M511.119,95.281l-0.176,7.191L253.997,84.34c0,0,0.501-4.852-0.825-12.612
	c-1.335-7.795-23.245-7.559-23.245-7.559l6.92,71.585c0.228,0.123,0.454,0.248,0.637,0.376c3.193,2.254,3.049,9.306,0.663,13.068
	l0.517,5.354c4.382,1.047,6.115,11.564,3.566,15.216c3.232,2.531,2.566,8.832,0.529,12.413c0.105,0.033,0.228,0.052,0.323,0.093
	c4.668,2.018,9.118,18.401,9.429,29.166l9.205-0.597l-0.706-8.726l249.84-36.25l-0.07,4.526l4.506-1.014
	c0,0,0.163-74.304,0.298-74.464C512.327,91.149,511.119,95.281,511.119,95.281z M503.528,110.39c0.198,0.014,0.48,0.034,0.808,0.056
	l-11.968,9.418l-43.211-0.313l-20.909-14.194C461.702,107.593,490.423,109.513,503.528,110.39z M355.087,139.603h-0.017
	l-25.739-12.717l48.275-0.281L355.087,139.603z M389.874,126.534l60.597-0.35l14.143,9.327l-96.318,3.598L389.874,126.534z
	 M356.143,146.191l24.091,12.077l-52.792,4.646L356.143,146.191z M367.183,145.692l97.939-4.391l-13.587,10.69l-61.111,5.381
	L367.183,145.692z M472.511,140.97l0.354-0.016l12.253,8.081l-25.308,2.227L472.511,140.97z M472.289,135.223l-13.416-9.091
	l25.717-0.149l-11.717,9.218L472.289,135.223z M440.319,119.488l-37.884-0.272l20.001-11.656L440.319,119.488z M280.731,95.489
	c31.73,2.122,86.757,5.803,135.079,9.034l-25.249,14.606l-78.073-0.563l-49.042-24.232
	C267.859,94.628,273.727,95.021,280.731,95.489z M254.4,94.64l46.993,23.846l-45.604-0.331L254.4,94.64z M256.055,127.313
	l62.026-0.362l25.759,13.072l-86.363,3.228L256.055,127.313z M258.305,150.573l84.323-3.78l-30.231,17.445l-52.697,4.64
	L258.305,150.573z M260.776,194.032l-0.245-16.514l35.241-3.683L260.776,194.032z M274.402,193.826l37.127-21.637l79.836-8.342
	l20.616,10.333L274.402,193.826z M421.232,172.856l-19.979-10.042l42.118-4.402l-17.512,13.779L421.232,172.856z M435.734,170.78
	l16.381-13.279l39.569-4.135l11.707,7.723L435.734,170.78z M510.636,152.738l-0.049,7.32l-1.357,0.193l-11.148-7.553l12.597-1.316
	L510.636,152.738z M510.538,146.798l-18.732,1.649l-11.548-7.825l30.448-1.366L510.538,146.798z M510.601,133.792l-30.648,1.146
	l11.093-8.993l19.87-0.115L510.601,133.792z M510.951,119.997l-12.457-0.089l11.231-9.104c0.904,0.061,1.385,0.092,1.385,0.092
	L510.951,119.997z"/>
<path fill="#C1484B" d="M214.041,135.581c-1.442,2.743-2.066,13.624,0.146,16.042c2.269,2.482,13.676-0.231,17.699-2.25
	c4.041-2.027,5.1-10.519,1.208-12.879C229.325,134.212,215.466,132.875,214.041,135.581z M199.998,190.13
	c12.33,1.14,31.98-5.963,35.001-8.03c3.017-2.065,4.705-8.741-0.237-10.306c-4.805-1.522-37.344,5.739-43.04,4.794
	C186.189,175.667,188.302,189.046,199.998,190.13z M232.126,155.182c-4.76-0.451-18.557-0.312-20.521,0.676
	c-1.96,0.985-23.675,4.714-24.926,8.023c-1.275,3.367,1.297,8.932,3.916,10.141c2.668,1.227,41.723-4.02,44.981-6.439
	C238.826,165.167,236.993,155.64,232.126,155.182z M238.808,186.725c-5.231-2.26-26.484,7.257-41.01,7.529
	c-13.79,0.257-6.263,4.946-4.011,8.896c2.329,4.082,15.475,4.761,22.639,8.372c3.636,1.837,3.292,2.757,2.842,3.728
	c0.384,1.006,0.773,2.099,1.166,3.27c0.442,0.345,0.966,0.707,1.681,1.125c2.365,1.377,4.957,2.109,7.545,2.386
	c0.028-0.118,0.043-0.238,0.072-0.361c0.335-1.303,1.062-2.43,2.186-3.36c1.123-0.937,2.352-1.451,3.689-1.548
	c0.971-0.071,1.929,0.077,2.872,0.434c1.106,0.962,1.701,2.016,1.784,3.172c0.009,0.123-0.034,0.276-0.044,0.409
	c1.964-0.695,3.641-1.588,4.817-2.562C249.267,214.721,244.215,189.061,238.808,186.725z M181.668,165.25
	c-3.583-1.259-12.216-0.43-15.472,2.048c-3.269,2.485-2.821,9.511-0.14,11.032c2.743,1.561,19.213,0.912,20.31-0.759
	C187.455,175.909,185.338,166.539,181.668,165.25z M208.007,115.445c-2.43,0.764-2.016,2.774-5.273,5.024
	c-3.269,2.256-8.536,3.299-10.999,3.523c-2.436,0.222-2.049,6.067-2.049,6.067s4.591,1.655,9.578,2.459
	c5.135,0.828,22.204,1.154,26.084-1.701c3.865-2.843,6.043-13.569,1.026-15.096C221.53,114.248,210.454,114.676,208.007,115.445z
	 M207.866,147.488c-4.041-1.982-18.008,9.061-26.443,9.951c-8.183,0.866-21.746-0.608-25.177,0.533
	c-3.407,1.132,0.96,5.562,0.96,5.562s2.809,2.238,6.037,1.798c3.264-0.447,44.831-10.029,46.101-12.304
	C210.599,150.776,212.042,149.537,207.866,147.488z M179.799,156.034c9.212-0.033,27.56-13.349,27.85-18.115
	c0.275-4.608-16.979-5.817-21.206-5.034c-4.167,0.774-30.292,10.21-29.751,17.491C157.268,158.126,170.95,156.067,179.799,156.034z
	 M194.351,120.143c4.054,0.519,7.964-6.049,13.142-7.642c5.242-1.611,12.31,0.366,16.74-0.808c4.486-1.189,4.176-15.515,1.355-18.21
	c-2.718-2.597-20.641,0.997-26.833,3.79c-6.14,2.766-10.437,6.881-10.808,9.009c-0.376,2.165,0.841,6.419,0.841,6.419
	S190.396,119.634,194.351,120.143z"/>
</svg>
