
<svg xmlns="http://www.w3.org/2000/svg" viewBox="0 0 1233.49 303.6"><defs><style>.cls-1{fill:#1d1d1b;}</style></defs><title>Asset 1</title><g id="Layer_2" data-name="Layer 2"><g id="Layer_1-2" data-name="Layer 1"><path class="cls-1" d="M565.15,291.07c-16.35,0-23-18.1-23-35.5V140.36h47l-.05-5.23h-47V88.47L485.1,97.54v37.59H467v5.23h18.1V254.53c0,34.8,22.27,49.07,53.6,49.07,26.11,0,48.38-12.18,59.52-28.19v-2.09C586.74,284.81,574.9,291.07,565.15,291.07Z"/><path class="cls-1" d="M664,101c20.89,0,35.51-12.18,35.51-30.63,0-18.1-14.62-30.28-35.51-30.28s-35.5,12.18-35.5,30.28C628.51,88.84,643.13,101,664,101Z"/><path class="cls-1" d="M694,280.28v-158l-83.19,13.58v2.09c19.84,0,25.76,5.91,25.76,18.45V280.28c0,8.7-5.23,17.75-26.11,17.75v2.09H720.06V298C699.17,298,694,289,694,280.28Z"/><path class="cls-1" d="M833.53,124.69C813,127.13,803.94,144.53,803.94,211c0,50.12,25.41,77.62,56.39,77.62,19.84,0,34.46-5.57,50.82-18.45v2.09c-18.1,23-51.17,31.32-73.79,31.32-44.56,0-92.94-32.72-92.94-91.19S792.8,123,833.53,122.6Zm77.27,37.25c0,18.44-12.53,33.41-34.8,33.41-17.06,0-28.2-11.14-30.29-21.93,9.75-3.83,16.71-16.36,16.71-25.41,0-8-2.09-20.53-15-23V122.6C893.05,122.6,910.8,142.1,910.8,161.94Z"/><path class="cls-1" d="M1015.59,280.28v-236l-83.2,13.57V60c19.84,0,25.76,5.92,25.76,18.45V280.28c0,8.7-5.22,17.75-26.1,17.75v2.09h109.64V298C1020.8,298,1015.59,289,1015.59,280.28Z"/><path class="cls-1" d="M1066.07,212.41c0-58.48,44.55-89.46,85.28-89.81v2.09c-20.54,2.44-26.11,19.84-26.11,86.33,0,50.12,22.28,77.62,53.26,77.62,19.84,0,34.45-5.57,50.81-18.45v2.09c-18.1,23-51.16,31.32-73.79,31.32C1111,303.6,1066.07,270.88,1066.07,212.41Zm78.31-14.62c30.63,0,43.51-9.75,43.51-39,0-16.7-7-32-22.62-34.11V122.6c45.94,0,68.22,32.72,68.22,59.18a103.41,103.41,0,0,1-1.74,18.1h-87.37Z"/><path class="cls-1" d="M351.08,280.28V122.6l-83.19,13.58v2.09c19.84,0,25.76,5.91,25.76,18.45V280.28c0,8.7-5.23,17.75-26.11,17.75h-2.11c-11.57.06-20.31-3.9-25.25-13.29L132,49.79,97.4,125.05,179.66,300l78.44.16H377.18V298C356.3,298,351.08,289,351.08,280.28Z"/><path class="cls-1" d="M407.82,122.6c-21.59,0-38.64,15.32-45.25,37.6V163c4.52-8,11.83-13.23,20.88-13.23,12.18,0,19.49,8.71,19.49,18.8,0,12.88-7,20.19-13.57,23.67,4.17,5.57,11.48,7.66,19.84,7.66,18.79,0,35.85-15.67,35.85-39.68C445.06,139.31,431.83,122.6,407.82,122.6Z"/><path class="cls-1" d="M80.53,286.69l-.17-.38L51.16,222.9,22.8,284.5a40.21,40.21,0,0,1-3.67,5.41A31.55,31.55,0,0,1,14.07,294,32.35,32.35,0,0,1,0,298v2l86.72,0S80.57,286.75,80.53,286.69Z"/><path class="cls-1" d="M221.52,7c-8.86,2.18-15.77,12.43-18.65,24.87H202V6.33h19.57ZM255.5,84v.69H218.65V84c6.91,0,8.63-3,8.63-6.11V6.33h19.58V77.85C246.86,81,248.59,84,255.5,84ZM272.2,6.33V31.9h-.92C268.4,19.46,261.49,9.21,252.62,7v-.7Z"/><path class="cls-1" d="M345.54,78.08V42.15c0-11.4-7.37-16.24-17.73-16.24-8.52,0-16,4.49-19.12,9.33v.69a12.28,12.28,0,0,1,8.75-3.57c5.76,0,9.1,3.34,9.1,9.79V78.08C326.54,81,324.81,84,318,84v.69h36.16V84C347.27,84,345.54,81,345.54,78.08Z"/><path class="cls-1" d="M305.24,78.08V0L277.71,4.49v.69c6.56,0,8.52,2,8.52,6.11V78.08c0,2.88-1.72,5.88-8.63,5.88v.69h36.27V84C307,84,305.24,81,305.24,78.08Z"/><path class="cls-1" d="M361.54,55.62c0-19.34,14.74-29.59,28.21-29.71v.69c-6.79.81-8.63,6.57-8.63,28.57,0,16.58,7.37,25.68,17.62,25.68,6.56,0,11.4-1.85,16.81-6.11v.69c-6,7.61-16.93,10.37-24.42,10.37C376.39,85.8,361.54,75,361.54,55.62Zm25.91-4.83c10.13,0,14.39-3.23,14.39-12.9,0-5.53-2.3-10.59-7.48-11.29v-.69c15.2,0,22.57,10.83,22.57,19.58a34.65,34.65,0,0,1-.57,6H387.45Z"/></g></g></svg>